<mxfile host="app.diagrams.net" modified="2021-02-05T16:24:37.851Z" agent="5.0 (Windows NT 10.0; Win64; x64) AppleWebKit/537.36 (KHTML, like Gecko) Chrome/88.0.4324.146 Safari/537.36" etag="YZ7_StKMvUwMU3tCLzns" version="14.2.9" type="github">
  <diagram id="U1ADgzj7NbHvVfgoWPWw" name="Page-1">
    <mxGraphModel dx="1422" dy="762" grid="1" gridSize="10" guides="1" tooltips="1" connect="1" arrows="1" fold="1" page="1" pageScale="1" pageWidth="850" pageHeight="1100" math="0" shadow="0">
      <root>
        <mxCell id="0" />
        <mxCell id="1" parent="0" />
        <mxCell id="Ohg4oa2j4WqQgn4zbkPp-1" value="Art_object" style="rounded=0;whiteSpace=wrap;html=1;" vertex="1" parent="1">
          <mxGeometry x="610" y="170" width="80" height="40" as="geometry" />
        </mxCell>
        <mxCell id="Ohg4oa2j4WqQgn4zbkPp-9" style="edgeStyle=orthogonalEdgeStyle;rounded=0;orthogonalLoop=1;jettySize=auto;html=1;exitX=0.5;exitY=1;exitDx=0;exitDy=0;entryX=0;entryY=0.25;entryDx=0;entryDy=0;endArrow=none;endFill=0;" edge="1" parent="1" source="Ohg4oa2j4WqQgn4zbkPp-2" target="Ohg4oa2j4WqQgn4zbkPp-1">
          <mxGeometry relative="1" as="geometry" />
        </mxCell>
        <mxCell id="Ohg4oa2j4WqQgn4zbkPp-2" value="&lt;u&gt;Id_no&lt;/u&gt;" style="ellipse;whiteSpace=wrap;html=1;" vertex="1" parent="1">
          <mxGeometry x="540" y="90" width="50" height="30" as="geometry" />
        </mxCell>
        <mxCell id="Ohg4oa2j4WqQgn4zbkPp-8" style="edgeStyle=orthogonalEdgeStyle;rounded=0;orthogonalLoop=1;jettySize=auto;html=1;exitX=0.5;exitY=1;exitDx=0;exitDy=0;entryX=0.25;entryY=0;entryDx=0;entryDy=0;endArrow=none;endFill=0;" edge="1" parent="1" source="Ohg4oa2j4WqQgn4zbkPp-3" target="Ohg4oa2j4WqQgn4zbkPp-1">
          <mxGeometry relative="1" as="geometry" />
        </mxCell>
        <mxCell id="Ohg4oa2j4WqQgn4zbkPp-3" value="Artist&lt;span style=&quot;color: rgba(0 , 0 , 0 , 0) ; font-family: monospace ; font-size: 0px&quot;&gt;%3CmxGraphModel%3E%3Croot%3E%3CmxCell%20id%3D%220%22%2F%3E%3CmxCell%20id%3D%221%22%20parent%3D%220%22%2F%3E%3CmxCell%20id%3D%222%22%20value%3D%22Id_no%22%20style%3D%22ellipse%3BwhiteSpace%3Dwrap%3Bhtml%3D1%3B%22%20vertex%3D%221%22%20parent%3D%221%22%3E%3CmxGeometry%20x%3D%22540%22%20y%3D%2290%22%20width%3D%2250%22%20height%3D%2230%22%20as%3D%22geometry%22%2F%3E%3C%2FmxCell%3E%3C%2Froot%3E%3C%2FmxGraphModel%3E&lt;/span&gt;" style="ellipse;whiteSpace=wrap;html=1;" vertex="1" parent="1">
          <mxGeometry x="610" y="90" width="50" height="30" as="geometry" />
        </mxCell>
        <mxCell id="Ohg4oa2j4WqQgn4zbkPp-7" style="edgeStyle=orthogonalEdgeStyle;rounded=0;orthogonalLoop=1;jettySize=auto;html=1;exitX=0;exitY=0.5;exitDx=0;exitDy=0;entryX=1;entryY=0.25;entryDx=0;entryDy=0;endArrow=none;endFill=0;" edge="1" parent="1" source="Ohg4oa2j4WqQgn4zbkPp-4" target="Ohg4oa2j4WqQgn4zbkPp-1">
          <mxGeometry relative="1" as="geometry" />
        </mxCell>
        <mxCell id="Ohg4oa2j4WqQgn4zbkPp-4" value="Title" style="ellipse;whiteSpace=wrap;html=1;" vertex="1" parent="1">
          <mxGeometry x="690" y="90" width="50" height="30" as="geometry" />
        </mxCell>
        <mxCell id="Ohg4oa2j4WqQgn4zbkPp-6" style="edgeStyle=orthogonalEdgeStyle;rounded=0;orthogonalLoop=1;jettySize=auto;html=1;exitX=0;exitY=0.5;exitDx=0;exitDy=0;entryX=1;entryY=0.5;entryDx=0;entryDy=0;endArrow=none;endFill=0;" edge="1" parent="1" source="Ohg4oa2j4WqQgn4zbkPp-5" target="Ohg4oa2j4WqQgn4zbkPp-1">
          <mxGeometry relative="1" as="geometry" />
        </mxCell>
        <mxCell id="Ohg4oa2j4WqQgn4zbkPp-5" value="Desc" style="ellipse;whiteSpace=wrap;html=1;" vertex="1" parent="1">
          <mxGeometry x="760" y="130" width="50" height="30" as="geometry" />
        </mxCell>
        <mxCell id="Ohg4oa2j4WqQgn4zbkPp-11" value="Statue" style="rounded=0;whiteSpace=wrap;html=1;" vertex="1" parent="1">
          <mxGeometry x="690" y="410" width="80" height="40" as="geometry" />
        </mxCell>
        <mxCell id="Ohg4oa2j4WqQgn4zbkPp-12" value="Sculpture" style="rounded=0;whiteSpace=wrap;html=1;" vertex="1" parent="1">
          <mxGeometry x="560" y="410" width="80" height="40" as="geometry" />
        </mxCell>
        <mxCell id="Ohg4oa2j4WqQgn4zbkPp-13" value="Painting" style="rounded=0;whiteSpace=wrap;html=1;" vertex="1" parent="1">
          <mxGeometry x="440" y="410" width="80" height="40" as="geometry" />
        </mxCell>
        <mxCell id="Ohg4oa2j4WqQgn4zbkPp-14" value="Other" style="rounded=0;whiteSpace=wrap;html=1;" vertex="1" parent="1">
          <mxGeometry x="320" y="410" width="80" height="40" as="geometry" />
        </mxCell>
        <mxCell id="Ohg4oa2j4WqQgn4zbkPp-20" style="edgeStyle=orthogonalEdgeStyle;rounded=0;orthogonalLoop=1;jettySize=auto;html=1;exitX=0.5;exitY=0;exitDx=0;exitDy=0;entryX=0.375;entryY=1.1;entryDx=0;entryDy=0;entryPerimeter=0;endArrow=none;endFill=0;" edge="1" parent="1" source="Ohg4oa2j4WqQgn4zbkPp-15" target="Ohg4oa2j4WqQgn4zbkPp-13">
          <mxGeometry relative="1" as="geometry" />
        </mxCell>
        <mxCell id="Ohg4oa2j4WqQgn4zbkPp-15" value="Paint_on" style="ellipse;whiteSpace=wrap;html=1;" vertex="1" parent="1">
          <mxGeometry x="400" y="500" width="50" height="30" as="geometry" />
        </mxCell>
        <mxCell id="Ohg4oa2j4WqQgn4zbkPp-19" style="edgeStyle=orthogonalEdgeStyle;rounded=0;orthogonalLoop=1;jettySize=auto;html=1;exitX=0.5;exitY=0;exitDx=0;exitDy=0;entryX=0.613;entryY=1.05;entryDx=0;entryDy=0;entryPerimeter=0;endArrow=none;endFill=0;" edge="1" parent="1" source="Ohg4oa2j4WqQgn4zbkPp-16" target="Ohg4oa2j4WqQgn4zbkPp-13">
          <mxGeometry relative="1" as="geometry" />
        </mxCell>
        <mxCell id="Ohg4oa2j4WqQgn4zbkPp-16" value="&lt;i&gt;Drawn_on&lt;/i&gt;" style="ellipse;whiteSpace=wrap;html=1;" vertex="1" parent="1">
          <mxGeometry x="455" y="500" width="65" height="30" as="geometry" />
        </mxCell>
        <mxCell id="Ohg4oa2j4WqQgn4zbkPp-18" style="edgeStyle=orthogonalEdgeStyle;rounded=0;orthogonalLoop=1;jettySize=auto;html=1;exitX=0.5;exitY=0;exitDx=0;exitDy=0;entryX=1;entryY=1;entryDx=0;entryDy=0;endArrow=none;endFill=0;" edge="1" parent="1" source="Ohg4oa2j4WqQgn4zbkPp-17" target="Ohg4oa2j4WqQgn4zbkPp-13">
          <mxGeometry relative="1" as="geometry" />
        </mxCell>
        <mxCell id="Ohg4oa2j4WqQgn4zbkPp-17" value="Style" style="ellipse;whiteSpace=wrap;html=1;" vertex="1" parent="1">
          <mxGeometry x="510" y="470" width="50" height="30" as="geometry" />
        </mxCell>
      </root>
    </mxGraphModel>
  </diagram>
</mxfile>
